<?xml version="1.0" encoding="utf-8"?>
<!-- Generator: Adobe Illustrator 18.0.0, SVG Export Plug-In . SVG Version: 6.00 Build 0)  -->
<!DOCTYPE svg PUBLIC "-//W3C//DTD SVG 1.1//EN" "http://www.w3.org/Graphics/SVG/1.1/DTD/svg11.dtd">
<svg version="1.1" id="Layer_1" xmlns="http://www.w3.org/2000/svg" xmlns:xlink="http://www.w3.org/1999/xlink" x="0px" y="0px"
	 viewBox="0 0 64 64" enable-background="new 0 0 64 64" xml:space="preserve">
<g>
	<g>
		<g>
			<path fill="#E5E5E5" d="M32,0c17.7,0,32,14.3,32,32S49.7,64,32,64S0,49.7,0,32S14.3,0,32,0z"/>
		</g>
	</g>
	<g>
		<g>
			<path fill="#F94646" d="M53.7,24.3c0.4,0.4,0.4,1,0,1.4L47.4,32l6.3,6.3c0.4,0.4,0.4,1,0,1.4C53.5,39.9,53.3,40,53,40
				s-0.5-0.1-0.7-0.3L46,33.4l-6.3,6.3C39.5,39.9,39.3,40,39,40s-0.5-0.1-0.7-0.3c-0.4-0.4-0.4-1,0-1.4l6.3-6.3l-6.3-6.3
				c-0.4-0.4-0.4-1,0-1.4c0.4-0.4,1-0.4,1.4,0l6.3,6.3l6.3-6.3C52.7,23.9,53.3,23.9,53.7,24.3z"/>
		</g>
	</g>
	<g>
		<g>
			<circle fill="#2C444F" cx="31" cy="32" r="4"/>
		</g>
	</g>
	<g>
		<g>
			<path fill="#4C6C7C" d="M17,25v14h-6.4c-1.7,0-3-1.3-3-3v-8c0-1.7,1.3-3,3-3H17z"/>
		</g>
	</g>
	<g>
		<g>
			<polygon fill="#2C444F" points="29,14 29,50 15,39 15,25 			"/>
		</g>
	</g>
	<g>
		<g>
			<path fill="#F94646" d="M32,36.3V50c0,1.1-0.9,2-2,2s-2-0.9-2-2v-0.8V14.8V14c0-1.1,0.9-2,2-2c0.5,0,1,0.2,1.4,0.6
				c0.4,0.4,0.6,0.9,0.6,1.4v13.7V36.3z"/>
		</g>
	</g>
</g>
</svg>
